<svg width="17" height="16" viewBox="0 0 17 16" fill="none" xmlns="http://www.w3.org/2000/svg">
<g clip-path="url(#clip0_5302_1925)">
<path d="M8.23327 9.58269L2.37941 15.6667C2.27679 15.7728 2.15506 15.8568 2.02119 15.914C1.88731 15.9712 1.74391 16.0004 1.59916 16C1.45442 15.9996 1.31117 15.9696 1.17759 15.9116C1.04401 15.8537 0.922731 15.7689 0.820663 15.6623C0.718595 15.5556 0.637743 15.4291 0.582724 15.2899C0.527705 15.1508 0.499597 15.0017 0.500004 14.8513C0.500412 14.7009 0.529328 14.552 0.5851 14.4132C0.640871 14.2744 0.722407 14.1483 0.825051 14.0423L6.6388 8.00001L0.825051 1.95775C0.722407 1.85168 0.640871 1.72565 0.5851 1.58683C0.529328 1.44801 0.500412 1.29912 0.500004 1.14869C0.499597 0.998253 0.527705 0.849213 0.582724 0.710069C0.637743 0.570925 0.718595 0.444411 0.820663 0.337744C0.922731 0.231078 1.04401 0.146349 1.17759 0.0884006C1.31117 0.0304523 1.45442 0.000410768 1.59916 4.18326e-06C1.74391 -0.000402401 1.88731 0.0288329 2.02119 0.0860299C2.15506 0.143227 2.27679 0.227277 2.37941 0.333369L8.23327 6.41733L14.0871 0.333369C14.1898 0.227277 14.3115 0.143227 14.4454 0.0860299C14.5792 0.0288329 14.7226 -0.000402401 14.8674 4.18326e-06C15.0121 0.000410768 15.1554 0.0304523 15.2889 0.0884006C15.4225 0.146349 15.5438 0.231078 15.6459 0.337744C15.7479 0.444411 15.8288 0.570925 15.8838 0.710069C15.9388 0.849213 15.9669 0.998253 15.9665 1.14869C15.9661 1.29912 15.9372 1.44801 15.8814 1.58683C15.8257 1.72565 15.7441 1.85168 15.6415 1.95775L9.82773 8.00001L15.6415 14.0423C15.7441 14.1483 15.8257 14.2744 15.8814 14.4132C15.9372 14.552 15.9661 14.7009 15.9665 14.8513C15.9669 15.0017 15.9388 15.1508 15.8838 15.2899C15.8288 15.4291 15.7479 15.5556 15.6459 15.6623C15.5438 15.7689 15.4225 15.8537 15.2889 15.9116C15.1554 15.9696 15.0121 15.9996 14.8674 16C14.7226 16.0004 14.5792 15.9712 14.4454 15.914C14.3115 15.8568 14.1898 15.7728 14.0871 15.6667L8.23327 9.58269Z" fill="#BCBCBF"/>
</g>
<defs>
<clipPath id="clip0_5302_1925">
<rect width="16" height="16" fill="white" transform="translate(0.5)"/>
</clipPath>
</defs>
</svg>
